<svg xmlns="http://www.w3.org/2000/svg" viewBox="0 0 184.25 297.8"><defs><style>.cls-1{fill:#a9d3e8;}</style></defs><title>contact-card-logo</title><g id="Layer_2" data-name="Layer 2"><g id="Layer_1-2" data-name="Layer 1"><polygon class="cls-1" points="63.76 116.29 42.2 116.29 18.42 116.29 18.42 140.07 18.42 204.13 87.55 297.8 87.55 260.41 87.55 258.47 87.55 209.49 63.76 209.49 63.76 226.14 42.2 196.83 42.2 140.07 63.76 140.07 63.76 169.25 87.55 169.25 87.55 140.07 87.55 116.29 63.76 116.29"/><polygon class="cls-1" points="151.76 116.29 132.18 132.78 113.47 116.29 97.69 116.29 97.69 297.8 121.47 267.23 121.47 176.11 121.47 170.36 121.47 155.78 132.18 163.42 142.88 156.04 142.88 170.36 142.88 176.38 142.88 238.93 166.66 208.35 166.66 116.29 151.76 116.29"/><path class="cls-1" d="M167,106.19l-44.32-5.54a.6.6,0,0,1-.19-.06l-6.5-3,39.5-1.68a.63.63,0,0,0,.11-1.24L125.52,88,133,83.59a.6.6,0,0,1,.29-.08l29.44-1.31A.63.63,0,0,0,163,81L148.23,74.8l5.56-3.24a.61.61,0,0,1,.51,0l11.39,3.7a.63.63,0,0,0,.68-.2l17.74-21.65a.63.63,0,0,0-.6-1l-27.58,4.75a.62.62,0,0,0-.51.49L153,69.31a.65.65,0,0,1-.3.42L147.16,73l1.89-15.88a.63.63,0,0,0-1.16-.41l-15.66,25a.56.56,0,0,1-.22.21l-7.5,4.38,9.22-30.05a.63.63,0,0,0-1.12-.53L110.3,88.74l-.79-8L101.13,91l0,0h-.06l4.67-12.35L98.39,82l17.36-35.94a.62.62,0,0,0-1-.7L93.41,68.45V59.76a.59.59,0,0,1,.07-.29l13.69-26.09a.63.63,0,0,0-.93-.8L93.47,42.2V35.77a.61.61,0,0,1,.21-.47l8.93-8a.62.62,0,0,0,.17-.68L93,.41a.63.63,0,0,0-1.18,0L82,26.63a.63.63,0,0,0,.17.69l8.93,8a.61.61,0,0,1,.21.47V42.2L78.57,32.58a.63.63,0,0,0-.93.79l13.68,26.1a.59.59,0,0,1,.07.29v8.69L70.08,45.36a.63.63,0,0,0-1,.7L86.41,82l-7.33-3.35,4.7,12.42h0l-.09.15h-.12L75.06,81l-.69,8L51.67,56.18a.63.63,0,0,0-1.12.55l9.58,29.93-7.56-4.28a.63.63,0,0,1-.22-.21L36.4,57.4a.63.63,0,0,0-1.15.42l2.07,15.85-5.6-3.17a.65.65,0,0,1-.3-.42l-2.54-11.7a.64.64,0,0,0-.51-.49L.73,53.47a.63.63,0,0,0-.58,1l18,21.45a.63.63,0,0,0,.68.19L30.16,72.3a.63.63,0,0,1,.52,0l5.59,3.17L21.6,81.88a.63.63,0,0,0,.23,1.2l29.46,1a.6.6,0,0,1,.29.08l7.55,4.29-30.05,7a.63.63,0,0,0,.13,1.24L68.16,97.9,61.72,101a.49.49,0,0,1-.2,0l-43.29,5.13Z"/></g></g></svg>