<svg xmlns="http://www.w3.org/2000/svg" viewBox="0 0 298.95 113.83"><defs><style>.cls-1{fill:#a9d3e8;}.cls-2{fill:#fff;}</style></defs><title>logo</title><g id="Layer_2" data-name="Layer 2"><g id="BACKGROUND_1" data-name="BACKGROUND 1"><polygon class="cls-1" points="24.37 44.45 16.13 44.45 7.04 44.45 7.04 53.54 7.04 78.03 33.46 113.83 33.46 99.54 33.46 98.8 33.46 80.07 24.37 80.07 24.37 86.44 16.13 75.23 16.13 53.54 24.37 53.54 24.37 64.69 33.46 64.69 33.46 53.54 33.46 44.45 24.37 44.45"/><polygon class="cls-1" points="58.01 44.45 50.52 50.75 43.37 44.45 37.34 44.45 37.34 113.83 46.43 102.14 46.43 67.32 46.43 65.12 46.43 59.54 50.52 62.47 54.61 59.65 54.61 65.12 54.61 67.42 54.61 91.33 63.7 79.64 63.7 44.45 58.01 44.45"/><path class="cls-1" d="M98.92,54.25H93.4V49.59a1.37,1.37,0,0,0-.28-1,1.55,1.55,0,0,0-1.05-.26H89.83a1.53,1.53,0,0,0-1,.26,1.36,1.36,0,0,0-.29,1V69.1a1.36,1.36,0,0,0,.29,1,1.53,1.53,0,0,0,1,.26h2.24a1.55,1.55,0,0,0,1.05-.26,1.37,1.37,0,0,0,.28-1V64.53h5.52v5.14q0,4.71-5.18,4.71H88.17Q83,74.38,83,69.67V49q0-4.71,5.19-4.71h5.57q5.17,0,5.18,4.71Z"/><path class="cls-1" d="M108.25,62.63v11.7h-5.47v-30h11Q119,44.31,119,49v8.9q0,3.9-3.47,4.57l5,11.84h-5.9l-4.56-11.7Zm0-14.13V58.58h4a1.53,1.53,0,0,0,1-.26,1.36,1.36,0,0,0,.29-1V49.78a1.36,1.36,0,0,0-.29-1,1.53,1.53,0,0,0-1-.26Z"/><path class="cls-1" d="M133.56,74.33h-5.47V64.82l-7-20.51h5.56l4.09,15.42,3.86-15.42h5.57l-6.62,20.36Z"/><path class="cls-1" d="M147.6,44.31h5.8q5.19,0,5.19,4.71v20.6q0,4.71-5.19,4.71h-5.8q-5.19,0-5.19-4.71V49Q142.41,44.31,147.6,44.31Zm5.52,24.55V49.78a1.36,1.36,0,0,0-.29-1,1.53,1.53,0,0,0-1-.26h-2.53a1.62,1.62,0,0,0-1.09.26,1.36,1.36,0,0,0-.29,1V68.86a1.41,1.41,0,0,0,.29,1,1.68,1.68,0,0,0,1.09.26h2.53a1.59,1.59,0,0,0,1-.26A1.41,1.41,0,0,0,153.12,68.86Z"/><path class="cls-2" d="M167.87,74.33H163v-30h6l5,17.84,5-17.84h6v30h-4.8V53.26l-4,14.56h-4.43l-4-14.52Z"/><path class="cls-2" d="M202,74.33l-1.14-6.23h-6.57l-1,6.23H187.8l6-30h7.37l6.33,30ZM195,64h5.09l-2.62-14.37Z"/><path class="cls-2" d="M219.73,68.86V62.44a1.37,1.37,0,0,0-.28-1,1.54,1.54,0,0,0-1-.27h-3.86c-3.26,0-4.9-1.58-4.9-4.75V49c0-3.14,1.72-4.71,5.14-4.71H220c3.42,0,5.14,1.57,5.14,4.71v4.19h-5.52V49.78a1.36,1.36,0,0,0-.29-1,1.55,1.55,0,0,0-1-.26h-1.8a1.65,1.65,0,0,0-1.1.26,1.37,1.37,0,0,0-.28,1v6a1.41,1.41,0,0,0,.28,1,1.71,1.71,0,0,0,1.1.26h3.75c3.34,0,5,1.55,5,4.66v7.85q0,4.71-5.19,4.71h-5.13q-5.19,0-5.19-4.71V65.48h5.47v3.38a1.41,1.41,0,0,0,.29,1,1.68,1.68,0,0,0,1.09.26h1.81a1.6,1.6,0,0,0,1-.26A1.41,1.41,0,0,0,219.73,68.86Z"/><path class="cls-2" d="M243.14,44.31V48.5h-5.28V74.33h-5.47V48.5h-5.24V44.31Z"/><path class="cls-2" d="M251.18,70.15h9.14v4.18H245.66v-30h14.28V48.5h-8.76v8.32h7.38v4.24h-7.38Z"/><path class="cls-2" d="M268.93,62.63v11.7h-5.47v-30h11q5.17,0,5.18,4.71v8.9q0,3.9-3.47,4.57l5,11.84h-5.9l-4.57-11.7Zm0-14.13V58.58h3.95a1.55,1.55,0,0,0,1.05-.26,1.37,1.37,0,0,0,.28-1V49.78a1.37,1.37,0,0,0-.28-1,1.55,1.55,0,0,0-1.05-.26Z"/><path class="cls-2" d="M293.43,68.86V62.44a1.37,1.37,0,0,0-.28-1,1.54,1.54,0,0,0-1-.27h-3.85q-4.9,0-4.9-4.75V49q0-4.71,5.14-4.71h5.23q5.14,0,5.14,4.71v4.19h-5.52V49.78a1.36,1.36,0,0,0-.29-1,1.53,1.53,0,0,0-1-.26H290.2a1.65,1.65,0,0,0-1.1.26,1.37,1.37,0,0,0-.28,1v6a1.41,1.41,0,0,0,.28,1,1.71,1.71,0,0,0,1.1.26H294q5,0,5,4.66v7.85q0,4.71-5.18,4.71h-5.14q-5.19,0-5.19-4.71V65.48h5.47v3.38a1.41,1.41,0,0,0,.29,1,1.68,1.68,0,0,0,1.09.26h1.81a1.6,1.6,0,0,0,1-.26A1.41,1.41,0,0,0,293.43,68.86Z"/><path class="cls-2" d="M88.28,82.3h-3.1v3.93h2.39v1H85.18v5.07H84V81.25h4.33Z"/><path class="cls-2" d="M94.36,83.7h.38v1.07H94.2c-.75,0-1.12.44-1.12,1.33v6.25H91.85V83.7h1.23v1a1.74,1.74,0,0,1,.47-.7A1.15,1.15,0,0,1,94.36,83.7Z"/><path class="cls-2" d="M99.72,83.7h1.64a1.25,1.25,0,0,1,1.41,1.41v3.33H99.54v2.3a.69.69,0,0,0,.1.46.76.76,0,0,0,.45.1h.84a.7.7,0,0,0,.45-.1.69.69,0,0,0,.1-.46V90h1.23v1a1.25,1.25,0,0,1-1.41,1.41H99.72a1.25,1.25,0,0,1-1.41-1.41V85.11A1.25,1.25,0,0,1,99.72,83.7Zm-.18,3.69h2V85.3a.65.65,0,0,0-.11-.44c-.07-.08-.22-.11-.45-.11h-.89a.63.63,0,0,0-.45.11.66.66,0,0,0-.1.44Z"/><path class="cls-2" d="M108.28,83.7h1.64a1.25,1.25,0,0,1,1.41,1.41v3.33H108.1v2.3a.68.68,0,0,0,.11.46.72.72,0,0,0,.44.1h.84a.75.75,0,0,0,.46-.1.77.77,0,0,0,.09-.46V90h1.24v1a1.25,1.25,0,0,1-1.41,1.41h-1.59a1.25,1.25,0,0,1-1.41-1.41V85.11A1.25,1.25,0,0,1,108.28,83.7Zm-.18,3.69h2V85.3a.65.65,0,0,0-.11-.44c-.07-.08-.22-.11-.45-.11h-.89a.6.6,0,0,0-.44.11.65.65,0,0,0-.11.44Z"/><path class="cls-2" d="M119.11,83.7v1l-3,6.55h3v1H114.9v-1l3-6.55h-2.81v-1Z"/><path class="cls-2" d="M124.26,83.7h1.64a1.25,1.25,0,0,1,1.41,1.41v3.33h-3.23v2.3a.68.68,0,0,0,.11.46.74.74,0,0,0,.45.1h.83a.44.44,0,0,0,.56-.56V90h1.23v1a1.25,1.25,0,0,1-1.41,1.41h-1.59a1.25,1.25,0,0,1-1.41-1.41V85.11A1.25,1.25,0,0,1,124.26,83.7Zm-.18,3.69h2V85.3a.65.65,0,0,0-.11-.44.6.6,0,0,0-.44-.11h-.89c-.23,0-.38,0-.45.11a.65.65,0,0,0-.11.44Z"/><path class="cls-2" d="M139,81.56h-.69a.75.75,0,0,0-.45.09.68.68,0,0,0-.11.46V83.7H139v1h-1.25v7.6h-1.23v-7.6h-.85v-1h.85V81.82A1.25,1.25,0,0,1,138,80.41H139Z"/><path class="cls-2" d="M143.92,83.7h1.82a1.25,1.25,0,0,1,1.41,1.41v5.83a1.25,1.25,0,0,1-1.41,1.41h-1.82a1.25,1.25,0,0,1-1.41-1.41V85.11A1.25,1.25,0,0,1,143.92,83.7Zm2,7V85.3a.66.66,0,0,0-.1-.44c-.07-.08-.22-.11-.45-.11h-1.1c-.23,0-.38,0-.45.11a.65.65,0,0,0-.11.44v5.44a.68.68,0,0,0,.11.46.74.74,0,0,0,.45.1h1.1a.74.74,0,0,0,.45-.1A.69.69,0,0,0,145.93,90.74Z"/><path class="cls-2" d="M153.85,83.7h.38v1.07h-.54c-.75,0-1.12.44-1.12,1.33v6.25h-1.23V83.7h1.23v1A1.64,1.64,0,0,1,153,84,1.15,1.15,0,0,1,153.85,83.7Z"/><path class="cls-2" d="M165,83.68h.72a1.25,1.25,0,0,1,1.41,1.41v5.85a1.25,1.25,0,0,1-1.41,1.41H165a.91.91,0,0,1-1-.59v.59h-1.23V80.41H164v3.86A.9.9,0,0,1,165,83.68Zm.9,7.06V85.28a.72.72,0,0,0-.1-.45.69.69,0,0,0-.46-.1h-.71a.68.68,0,0,0-.47.14.75.75,0,0,0-.14.5v5.28a.71.71,0,0,0,.14.5.63.63,0,0,0,.47.15h.71a.44.44,0,0,0,.56-.56Z"/><path class="cls-2" d="M172.73,83.7h1.64a1.25,1.25,0,0,1,1.41,1.41v3.33h-3.23v2.3c0,.24,0,.39.11.46a.72.72,0,0,0,.44.1h.84a.7.7,0,0,0,.45-.1.69.69,0,0,0,.1-.46V90h1.23v1a1.25,1.25,0,0,1-1.41,1.41h-1.58a1.25,1.25,0,0,1-1.41-1.41V85.11A1.25,1.25,0,0,1,172.73,83.7Zm-.18,3.69h2V85.3a.65.65,0,0,0-.11-.44c-.07-.08-.22-.11-.45-.11h-.89a.44.44,0,0,0-.55.55Z"/><path class="cls-2" d="M182.41,84.75h-1.23v5.9a.45.45,0,0,0,.56.56h.67v1.14h-1A1.25,1.25,0,0,1,180,90.94V84.75h-.78v-1H180V82.29h1.23V83.7h1.23Z"/><path class="cls-2" d="M188.6,84.75h-1.23v5.9a.66.66,0,0,0,.11.45.65.65,0,0,0,.44.11h.68v1.14h-1a1.25,1.25,0,0,1-1.41-1.41V84.75h-.78v-1h.78V82.29h1.23V83.7h1.23Z"/><path class="cls-2" d="M193.67,83.7h1.64a1.25,1.25,0,0,1,1.41,1.41v3.33h-3.23v2.3a.68.68,0,0,0,.11.46.72.72,0,0,0,.44.1h.84a.75.75,0,0,0,.46-.1.77.77,0,0,0,.09-.46V90h1.24v1a1.25,1.25,0,0,1-1.41,1.41h-1.59a1.25,1.25,0,0,1-1.41-1.41V85.11A1.25,1.25,0,0,1,193.67,83.7Zm-.18,3.69h2V85.3a.65.65,0,0,0-.11-.44.6.6,0,0,0-.44-.11H194a.6.6,0,0,0-.44.11.65.65,0,0,0-.11.44Z"/><path class="cls-2" d="M203.34,83.7h.37v1.07h-.53c-.75,0-1.13.44-1.13,1.33v6.25h-1.23V83.7h1.23v1a1.76,1.76,0,0,1,.48-.7A1.15,1.15,0,0,1,203.34,83.7Z"/><path class="cls-2" d="M214.49,83.7h.71a1.25,1.25,0,0,1,1.41,1.41v5.83a1.25,1.25,0,0,1-1.41,1.41h-.71a.92.92,0,0,1-1-.59v3.1h-1.23V83.7h1.23v.58A.92.92,0,0,1,214.49,83.7Zm.89,7V85.3a.72.72,0,0,0-.1-.44c-.07-.08-.22-.11-.46-.11h-.71a.65.65,0,0,0-.46.14.68.68,0,0,0-.15.5v5.26a.66.66,0,0,0,.15.5.61.61,0,0,0,.46.15h.71a.44.44,0,0,0,.56-.56Z"/><path class="cls-2" d="M222.21,83.7h1.64a1.25,1.25,0,0,1,1.41,1.41v3.33H222v2.3a.68.68,0,0,0,.11.46.72.72,0,0,0,.44.1h.84a.44.44,0,0,0,.56-.56V90h1.23v1a1.25,1.25,0,0,1-1.41,1.41h-1.59a1.25,1.25,0,0,1-1.41-1.41V85.11A1.25,1.25,0,0,1,222.21,83.7ZM222,87.39h2V85.3a.65.65,0,0,0-.11-.44.6.6,0,0,0-.44-.11h-.9a.6.6,0,0,0-.44.11.65.65,0,0,0-.11.44Z"/><path class="cls-2" d="M231.88,83.7h.37v1.07h-.53c-.75,0-1.13.44-1.13,1.33v6.25h-1.23V83.7h1.23v1a1.76,1.76,0,0,1,.48-.7A1.15,1.15,0,0,1,231.88,83.7Z"/><path class="cls-2" d="M238.44,81.56h-.69a.75.75,0,0,0-.45.09.68.68,0,0,0-.11.46V83.7h1.25v1h-1.25v7.6H236v-7.6h-.85v-1H236V81.82a1.25,1.25,0,0,1,1.41-1.41h1.07Z"/><path class="cls-2" d="M243.33,83.7h1.82a1.25,1.25,0,0,1,1.41,1.41v5.83a1.25,1.25,0,0,1-1.41,1.41h-1.82a1.25,1.25,0,0,1-1.41-1.41V85.11A1.25,1.25,0,0,1,243.33,83.7Zm2,7V85.3a.65.65,0,0,0-.11-.44c-.07-.08-.22-.11-.45-.11h-1.1c-.23,0-.38,0-.45.11a.65.65,0,0,0-.11.44v5.44a.68.68,0,0,0,.11.46.74.74,0,0,0,.45.1h1.1a.74.74,0,0,0,.45-.1A.68.68,0,0,0,245.35,90.74Z"/><path class="cls-2" d="M253.27,83.7h.37v1.07h-.54c-.74,0-1.12.44-1.12,1.33v6.25h-1.23V83.7H252v1a1.74,1.74,0,0,1,.47-.7A1.16,1.16,0,0,1,253.27,83.7Z"/><path class="cls-2" d="M262.52,83.7h.72a1.25,1.25,0,0,1,1.41,1.41v7.24h-1.23v-7a.72.72,0,0,0-.1-.44c-.07-.08-.22-.11-.46-.11h-.71a.63.63,0,0,0-.46.14.68.68,0,0,0-.15.5v7h-1.23v-7a.66.66,0,0,0-.1-.44c-.06-.08-.21-.11-.45-.11h-.71a.68.68,0,0,0-.47.14.73.73,0,0,0-.14.5v7h-1.23V83.7h1.23v.58a.9.9,0,0,1,1-.58h.71a1.24,1.24,0,0,1,1.31.71C261.55,83.93,261.92,83.7,262.52,83.7Z"/><path class="cls-2" d="M271.85,83.7h1.23v8.65h-1.23v-.59a.91.91,0,0,1-1,.59h-.71a1.25,1.25,0,0,1-1.41-1.41V85.11a1.25,1.25,0,0,1,1.41-1.41h.71a.9.9,0,0,1,1,.58Zm-1.32,7.6h.72a.61.61,0,0,0,.46-.15.67.67,0,0,0,.14-.5V85.39a.68.68,0,0,0-.14-.5.65.65,0,0,0-.46-.14h-.72c-.24,0-.39,0-.45.11a.66.66,0,0,0-.1.44v5.44a.69.69,0,0,0,.1.46A.7.7,0,0,0,270.53,91.3Z"/><path class="cls-2" d="M279.58,83.7h.71a1.25,1.25,0,0,1,1.41,1.41v7.24h-1.23v-7a.66.66,0,0,0-.1-.44c-.06-.08-.22-.11-.45-.11h-.72a.65.65,0,0,0-.46.14.68.68,0,0,0-.14.5v7h-1.23V83.7h1.23v.58A.9.9,0,0,1,279.58,83.7Z"/><path class="cls-2" d="M290.35,86.26h-1.23v-1a.66.66,0,0,0-.1-.44c-.06-.08-.21-.11-.45-.11h-.89c-.24,0-.39,0-.46.11a.72.72,0,0,0-.1.44v5.44a.44.44,0,0,0,.56.56h.89a.7.7,0,0,0,.45-.1.69.69,0,0,0,.1-.46v-1h1.23v1.16a1.25,1.25,0,0,1-1.41,1.41H287.3a1.25,1.25,0,0,1-1.41-1.41V85.11a1.25,1.25,0,0,1,1.41-1.41h1.64a1.25,1.25,0,0,1,1.41,1.41Z"/><path class="cls-2" d="M295.86,83.7h1.64a1.25,1.25,0,0,1,1.41,1.41v3.33h-3.23v2.3a.68.68,0,0,0,.11.46.74.74,0,0,0,.45.1h.84a.72.72,0,0,0,.45-.1.69.69,0,0,0,.1-.46V90h1.23v1a1.25,1.25,0,0,1-1.41,1.41h-1.59a1.25,1.25,0,0,1-1.41-1.41V85.11A1.25,1.25,0,0,1,295.86,83.7Zm-.18,3.69h2V85.3a.66.66,0,0,0-.1-.44.63.63,0,0,0-.45-.11h-.89c-.23,0-.38,0-.45.11a.65.65,0,0,0-.11.44Z"/><path class="cls-1" d="M63.85,40.59,46.91,38.47l-.08,0-2.48-1.16,15.1-.64a.24.24,0,0,0,0-.48L48,33.62,50.85,32a.2.2,0,0,1,.11,0l11.25-.5a.24.24,0,0,0,.08-.46l-5.63-2.37,2.12-1.24a.27.27,0,0,1,.2,0l4.35,1.42a.23.23,0,0,0,.26-.08l6.78-8.28a.23.23,0,0,0-.22-.38L59.6,21.82a.23.23,0,0,0-.19.19l-.92,4.48a.24.24,0,0,1-.11.16l-2.13,1.24L57,21.82a.24.24,0,0,0-.44-.15l-6,9.54a.3.3,0,0,1-.08.08L47.59,33l3.53-11.48a.24.24,0,0,0-.43-.21L42.16,33.92l-.3-3.07-3.2,3.95v0h0l1.79-4.72-2.8,1.28,6.63-13.73a.24.24,0,0,0-.39-.27L35.7,26.16V22.84a.26.26,0,0,1,0-.11l5.23-10a.24.24,0,0,0-.35-.31l-4.88,3.68V13.67a.25.25,0,0,1,.08-.18l3.41-3.05a.25.25,0,0,0,.07-.26L35.55.16a.24.24,0,0,0-.45,0l-3.74,10a.23.23,0,0,0,.06.26l3.41,3.05a.25.25,0,0,1,.08.18v2.46L30,12.45a.24.24,0,0,0-.35.31l5.23,10a.52.52,0,0,1,0,.11v3.32l-8.14-8.82a.24.24,0,0,0-.39.26L33,31.34l-2.8-1.28L32,34.81h0l0,0h0L28.69,31,28.43,34,19.75,21.48a.24.24,0,0,0-.43.21L23,33.13l-2.89-1.64a.3.3,0,0,1-.08-.08l-6.1-9.47a.24.24,0,0,0-.44.16l.8,6.06L12.13,27a.24.24,0,0,1-.12-.16l-1-4.47a.25.25,0,0,0-.2-.19L.28,20.44a.24.24,0,0,0-.22.39L6.93,29a.26.26,0,0,0,.26.07l4.34-1.47a.28.28,0,0,1,.2,0l2.13,1.22L8.26,31.3a.24.24,0,0,0,.09.46l11.25.37a.2.2,0,0,1,.11,0L22.6,33.8,11.12,36.48a.24.24,0,0,0,0,.47l14.89.47-2.46,1.19-.08,0L7,40.59Z"/></g></g></svg>